<svg xmlns="http://www.w3.org/2000/svg" xmlns:xlink="http://www.w3.org/1999/xlink">
	<symbol id="profile" viewBox="0 0 41 72" stroke-width="3">
	    <!-- Generator: Sketch 42 (36781) - http://www.bohemiancoding.com/sketch -->
	    <title>Profile</title>
	    <defs></defs>
        <path d="M3.39829995,16.3166257 C3.39829995,7.30520218 10.5625499,0 19.4001002,0 C28.2376504,0 35.4019004,7.30520218 35.4019004,16.3166257 C35.4019004,20.9506952 33.5073376,25.1335598 30.4649271,28.1038137 C36.0107778,33.9482938 39,44.3990275 39,56.318676 C39,74.6322142 31.9437198,69.267963 19.4001002,69.267963 C6.85648048,69.267963 0,74.6322142 0,56.318676 C0,44.4184091 2.89514374,33.9822839 8.3645867,28.1323599 C5.30503684,25.1603905 3.39829995,20.9655602 3.39829995,16.3166257 Z M9.16041826,28.2279903 L8.09920234,33.2206186 L17.4561992,35.2095097 L18.5174151,30.2168814 L9.16041826,28.2279903 Z M20.9340032,35.2095097 L30.291,33.2206186 L29.2297841,28.2279903 L19.8727872,30.2168814 L20.9340032,35.2095097 Z M19.1320755,32.8125 L16.1886792,39.375 L19.1320755,45.9375 L22.0754717,39.375 L19.1320755,32.8125 Z" id="Profile" stroke-width="3"></path>
	</symbol>
	<symbol id="photo" viewBox="0 0 71 68">
		<!-- Generator: Sketch 42 (36781) - http://www.bohemiancoding.com/sketch -->
		<title>Photo</title>
		<desc>Created with Sketch.</desc>
		<defs>
		<path d="M32.5752079,46.6285714 L18.3537415,20.8857143 L4.13227513,46.6285714 L2.89795918,46.6285714 L2.89795918,64.6 L68.1020408,64.6 L68.1020408,46.6285714 L49.4263039,46.6285714 L41.0544218,34 L32.6825397,46.6285714 L32.5752079,46.6285714 L32.5752079,46.6285714 Z M0,1.94363347 C0,0.870194344 0.859411885,0 1.93590091,0 L69.0640991,0 C70.1332676,0 71,0.872164271 71,1.94363347 L71,66.0563665 C71,67.1298057 70.1405881,68 69.0640991,68 L1.93590091,68 C0.866732359,68 0,67.1278357 0,66.0563665 L0,1.94363347 Z M52.6462585,26.7142857 C57.4477545,26.7142857 61.3401361,22.7999752 61.3401361,17.9714286 C61.3401361,13.1428819 57.4477545,9.22857143 52.6462585,9.22857143 C47.8447625,9.22857143 43.952381,13.1428819 43.952381,17.9714286 C43.952381,22.7999752 47.8447625,26.7142857 52.6462585,26.7142857 Z" id="path-1" stroke-width="3"></path>
		<mask id="mask-2" maskContentUnits="userSpaceOnUse" maskUnits="objectBoundingBox" x="0" y="0" width="71" height="68" fill="white">
		    <use xlink:href="#path-1"></use>
		</mask>
		</defs>
		<g id="Group-5">
		    <use id="Photo" mask="url(#mask-2)" xlink:href="#path-1"></use>
		</g>
	</symbol>
	<symbol id="Paint-Brush" viewBox="0 0 44 83" >
		<!-- Generator: Sketch 42 (36781) - http://www.bohemiancoding.com/sketch -->
		<title>Paint Brush</title>
		<desc>Created with Sketch.</desc>
		<defs></defs>
		<g >
		<path d="M25.4443129,43.5432492 C25.4510876,43.6220699 25.4545455,43.7018486 25.4545455,43.7824436 L25.4545455,76.6100431 C25.4545455,78.123055 24.2348884,79.3495935 22.7298618,79.3495935 L17.2701382,79.3495935 C15.765337,79.3495935 14.5454545,78.1238218 14.5454545,76.6100431 L14.5454545,43.7824436 C14.5454545,43.701852 14.548915,43.6220731 14.5556947,43.5432492 L11.1238043,43.5432492 C10.1202009,43.5432492 9.01125629,42.7818578 8.64604623,41.8404145 L4.75148243,31.8009564 C4.56048576,31.3086026 4.61149797,30.8650535 4.84725093,30.5541538 L0,30.5541538 L0,23.7136716 L0.493805363,23.7136716 C0.468077854,23.5913138 0.454545455,23.4644436 0.454545455,23.334406 L0.454545455,2.81782945 C0.454545455,1.80904624 1.27200947,0.991265865 2.27428484,0.991265865 L26.4311988,0.991265865 C27.0033398,0.916881767 27.2538339,6.85898662 29.6551444,3.06132637 C32.0564548,-0.736333879 37.309147,0.69786882 37.309147,0.69786882 C38.293187,0.859907534 39.0909091,1.80928458 39.0909091,2.81782945 L39.0909091,23.334406 C39.0909091,23.4644496 39.0773505,23.591319 39.0515821,23.7136716 L40,23.7136716 L40,30.5541538 L35.6032201,30.5541538 C35.8295414,30.8616516 35.8699604,31.2993162 35.6693877,31.7873424 L31.5321052,41.8540284 C31.1486822,42.7869593 30.0200984,43.5432492 29.0206717,43.5432492 L25.4443129,43.5432492 L25.4443129,43.5432492 Z M1.13636364,23.4856555 L38.8636364,23.4856555 L1.13636364,23.4856555 Z" stroke-width="3"></path>
		<path d="M12.5,1.59611251 L12.5,13.4529483" id="Line" stroke-width="0.5" stroke-linecap="square"></path>
		<path d="M7.95454545,1.59611251 L7.95454545,12.9969162" id="Line" stroke-width="0.5" stroke-linecap="square"></path>
		<path d="M18.4090909,1.59611251 L18.4090909,12.0848519" id="Line" stroke-width="0.5" stroke-linecap="square"></path>
		<path d="M24.7727273,1.59611251 L24.7727273,13.9089805" id="Line" stroke-width="0.5" stroke-linecap="square"></path>
		<path d="M32.0454545,2.50817681 L32.0454545,14.8210448" id="Line" stroke-width="0.5" stroke-linecap="square"></path>
		</g>
	</symbol>
	<symbol id="Messenger" viewBox="0 0 88 72">
		<!-- Generator: Sketch 42 (36781) - http://www.bohemiancoding.com/sketch -->
		<title>Messenger</title>
		<desc>Created with Sketch.</desc>
		<defs></defs>
		<g>
		    <path d="M77.893467,46.8680006 L83,66 L64.6560275,54.820102 L8.26284448,54.820102 C3.69940149,54.820102 0,51.1166616 0,46.5536236 L0,8.2664784 C0,3.70102845 3.70484104,0 8.26284448,0 L69.6364961,0 C74.1999391,0 77.8993406,3.70344039 77.8993406,8.2664784 L77.8993406,46.5536236 C77.8993406,46.658887 77.8973711,46.7636909 77.893467,46.8680006 L77.893467,46.8680006 Z M14.8832073,14.023747 L63.0161332,14.023747 L63.0161332,13.386304 L14.8832073,13.386304 L14.8832073,14.023747 Z M14.8832073,26.1351649 L63.0161332,26.1351649 L63.0161332,25.4977218 L14.8832073,25.4977218 L14.8832073,26.1351649 Z M14.8832073,38.2465828 L63.0161332,38.2465828 L63.0161332,37.6091397 L14.8832073,37.6091397 L14.8832073,38.2465828 Z" id="Messenger" stroke-width="3"></path>
		</g>
	</symbol>
	<symbol id="Jobs" viewBox="0 0 86 72">
		<!-- Generator: Sketch 42 (36781) - http://www.bohemiancoding.com/sketch -->
		<title>Jobs</title>
		<desc>Created with Sketch.</desc>
		<defs></defs>
		<g>
		    <path d="M53.6834532,30.1565217 L53.6834532,34.8777416 C53.6834532,35.8660923 54.4730793,36.6608696 55.4471323,36.6608696 L63.1284072,36.6608696 C64.103917,36.6608696 64.8920863,35.862536 64.8920863,34.8777416 L64.8920863,30.1565217 L79.0463149,30.1565217 L79.0463149,28.3826087 L64.8920863,28.3826087 L64.8920863,23.6613889 C64.8920863,22.6730381 64.1024603,21.8782609 63.1284072,21.8782609 L55.4471323,21.8782609 C54.4716226,21.8782609 53.6834532,22.6765945 53.6834532,23.6613889 L53.6834532,28.3826087 L28.3165468,28.3826087 L28.3165468,23.6613889 C28.3165468,22.6730381 27.5269207,21.8782609 26.5528677,21.8782609 L18.8715928,21.8782609 C17.896083,21.8782609 17.1079137,22.6765945 17.1079137,23.6613889 L17.1079137,28.3826087 L1.6325916,28.3826087 L1.6325916,30.1565217 L17.1079137,30.1565217 L17.1079137,34.8777416 C17.1079137,35.8660923 17.8975397,36.6608696 18.8715928,36.6608696 L26.5528677,36.6608696 C27.5283774,36.6608696 28.3165468,35.862536 28.3165468,34.8777416 L28.3165468,30.1565217 L53.6834532,30.1565217 L53.6834532,30.1565217 Z M24.7769784,11.2347826 L24.7769784,4.72529091 C24.7769784,2.1155848 26.8937822,0 29.4926732,0 L53.0972549,0 C55.7016612,0 57.8129496,2.1200576 57.8129496,4.72529091 L57.8129496,11.2347826 L76.1684988,11.2347826 C79.389148,11.2347826 82,13.8588403 82,17.0958537 L82,62.1389289 C82,65.3759091 79.387574,68 76.1684988,68 L5.83150119,68 C2.61085201,68 0,65.3759423 0,62.1389289 L0,17.0958537 C0,13.8588735 2.61242597,11.2347826 5.83150119,11.2347826 L24.7769784,11.2347826 L24.7769784,11.2347826 Z M26.704534,11.4929577 L54.9277902,11.4929577 L54.9277902,10.5352113 L26.704534,10.5352113 L26.704534,11.4929577 Z" id="Jobs" stroke-width="3"></path>
		</g>
	</symbol>

	<symbol id="Documents" viewBox="0 0 67 74">
		<!-- Generator: Sketch 42 (36781) - http://www.bohemiancoding.com/sketch -->
		<title>Documents</title>
		<desc>Created with Sketch.</desc>
		<defs></defs>
		<g>
		    <path d="M0,3.0078125 C0,1.34664353 1.34499051,0 3.01739648,0 L59.9826035,0 C61.6490656,0 63,1.3513213 63,3.0078125 L63,66.9921875 C63,68.6533565 61.6550095,70 59.9826035,70 L3.01739648,70 C1.35093442,70 0,68.6486787 0,66.9921875 L0,3.0078125 Z M12.9,15.6896552 L50.7,15.6896552 L50.7,15.0862069 L12.9,15.0862069 L12.9,15.6896552 Z M12.9,38.6206897 L50.7,38.6206897 L50.7,38.0172414 L12.9,38.0172414 L12.9,38.6206897 Z M12.9,27.1551724 L50.7,27.1551724 L50.7,26.5517241 L12.9,26.5517241 L12.9,27.1551724 Z M12.9,50.0862069 L50.7,50.0862069 L50.7,49.4827586 L12.9,49.4827586 L12.9,50.0862069 Z" id="Documents" stroke-width="3"></path>
		</g>
	</symbol>

	<symbol id="Emails" viewBox="0 0 67 48">
		<!-- Generator: Sketch 42 (36781) - http://www.bohemiancoding.com/sketch -->
		<title>Email</title>
		<desc>Created with Sketch.</desc>
		<defs>
		    <path d="M0,5.64735863 C0,2.52840858 2.52439504,0 5.65463926,0 L61.3453607,0 C64.4683318,0 67,2.52992744 67,5.64735863 L67,42.3526414 C67,45.4715914 64.475605,48 61.3453607,48 L5.65463926,48 C2.53166823,48 0,45.4700726 0,42.3526414 L0,5.64735863 Z M33.2161017,28.8 L64.1610169,1.69411765 L2.27118644,1.69411765 L33.2161017,28.8 Z" id="email-path" stroke-width="3"></path>
		    <mask id="email-mask" maskContentUnits="userSpaceOnUse" maskUnits="objectBoundingBox" x="0" y="0" width="67" height="48" fill="white">
		        <use xlink:href="#email-path"></use>
		    </mask>
		</defs>
		<g id="Group-7">
		    <use id="Email" mask="url(#email-mask)" xlink:href="#email-path"></use>
		</g>
	</symbol>
</svg>