<?xml version="1.0" encoding="utf-8"?>
<!-- Generator: Adobe Illustrator 16.0.0, SVG Export Plug-In . SVG Version: 6.00 Build 0)  -->
<!DOCTYPE svg PUBLIC "-//W3C//DTD SVG 1.1//EN" "http://www.w3.org/Graphics/SVG/1.1/DTD/svg11.dtd">
<svg version="1.1" id="Layer_1" xmlns="http://www.w3.org/2000/svg" xmlns:xlink="http://www.w3.org/1999/xlink" x="0px" y="0px"
	 width="250px" height="250px" viewBox="0 0 250 250" enable-background="new 0 0 250 250" xml:space="preserve">
<ellipse fill="#FFFFFF" stroke="#000000" stroke-miterlimit="10" cx="125.08" cy="102.64" rx="15.7" ry="6.78"/>
<path fill="#FFFFFF" stroke="#000000" stroke-miterlimit="10" d="M140.78,130.64c0,3.75-6.81,6.78-15.22,6.78
	s-15.22-3.04-15.22-6.78c0-0.35,0.06-0.69,0.17-1.03"/>
<line fill="none" stroke="#000000" stroke-miterlimit="10" x1="109.67" y1="102.67" x2="110" y2="132"/>
<line fill="none" stroke="#000000" stroke-miterlimit="10" x1="140.67" y1="101.67" x2="141" y2="131"/>
<path fill="none" stroke="#000000" stroke-miterlimit="10" d="M142.67,104.99c2.92,1.16,4.66,2.6,4.66,4.18
	c0,3.77-10,6.83-22.33,6.83s-22.33-3.06-22.33-6.83c0-1.69,2-3.23,5.3-4.42"/>
<circle fill="none" stroke="#000000" stroke-miterlimit="10" cx="108.92" cy="103.75" r="1.58"/>
<circle fill="none" stroke="#000000" stroke-miterlimit="10" cx="141.92" cy="103.75" r="1.58"/>
</svg>
